<svg width="54" height="54" viewBox="0 0 54 54" fill="none" xmlns="http://www.w3.org/2000/svg">
<rect width="54" height="54" rx="12" fill="#7D6AEE"/>
<g clip-path="url(#clip0_3_211)">
<path d="M40.545 38.0775C43.0125 35.05 44.5 31.2 44.5 27C44.5 17.34 36.66 9.5 27 9.5C17.34 9.5 9.5 17.34 9.5 27C9.5 36.66 17.34 44.5 27 44.5C31.2 44.5 35.05 43.0125 38.0775 40.545C38.55 40.16 39.005 39.74 39.4425 39.3025C39.495 39.25 39.53 39.1975 39.565 39.1625C39.915 38.8125 40.2475 38.445 40.545 38.0775ZM27 41C19.2825 41 13 34.7175 13 27C13 19.2825 19.2825 13 27 13C34.7175 13 41 19.2825 41 27C41 30.2375 39.8975 33.195 38.0425 35.575L35.54 33.0725C36.7475 31.3575 37.465 29.275 37.465 27.0175C37.465 21.225 32.7575 16.5175 26.965 16.5175C21.1725 16.5175 16.465 21.225 16.465 27.0175C16.465 32.81 21.1725 37.5175 26.965 37.5175C29.24 37.5175 31.3575 36.7825 33.0725 35.54L35.5575 38.025C33.195 39.8975 30.2375 41 27 41ZM30.36 27.8925C30.6575 26.7375 30.395 25.4775 29.5025 24.5675L29.4675 24.5325C28.12 23.185 25.9675 23.1675 24.6025 24.4625C24.585 24.48 24.55 24.4975 24.515 24.5325C23.15 25.8975 23.15 28.12 24.515 29.485L24.55 29.52C25.46 30.4125 26.7375 30.6925 27.8925 30.3775L30.535 33.02C29.485 33.65 28.2775 34.035 26.965 34.035C23.0975 34.035 19.965 30.9025 19.965 27.035C19.965 23.1675 23.0975 20.035 26.965 20.035C30.8325 20.035 33.965 23.1675 33.965 27.035C33.965 28.3125 33.5975 29.5025 32.985 30.535L30.36 27.8925Z" fill="white"/>
</g>
<defs>
<clipPath id="clip0_3_211">
<rect width="42" height="42" fill="white" transform="translate(6 6)"/>
</clipPath>
</defs>
</svg>
