<svg width="31" height="32" viewBox="0 0 31 32" fill="none" xmlns="http://www.w3.org/2000/svg">
<g clip-path="url(#clip0_2_148)">
<path d="M25.4815 16C25.519 18.6801 24.4888 21.2653 22.6172 23.1879C20.7456 25.1104 18.1858 26.213 15.5 26.2534C14.4288 26.257 13.3647 26.0789 12.3533 25.7267C11.8931 25.5772 11.4462 25.3899 11.0171 25.1667C9.34722 24.2877 7.95136 22.9679 6.98175 21.3515C6.01214 19.735 5.50601 17.8839 5.51857 16C5.48108 13.32 6.51128 10.7348 8.38285 8.8122C10.2544 6.88966 12.8143 5.78708 15.5 5.74671C16.2846 5.73867 17.0673 5.82371 17.8317 6.00004C18.2059 6.10226 18.5733 6.21559 18.9341 6.34004C20.8786 7.09737 22.5463 8.42699 23.7158 10.1524C24.8852 11.8777 25.501 13.9172 25.4815 16Z" fill="#5182C4"/>
<path d="M18.0388 31.78C16.4419 32.0532 14.8117 32.0735 13.2085 31.84C13.1421 31.8301 13.0823 31.7944 13.0423 31.7407C13.0022 31.687 12.9851 31.6196 12.9947 31.5533C13.003 31.489 13.0364 31.4305 13.0877 31.3905C13.139 31.3506 13.204 31.3324 13.2686 31.34C14.8158 31.6731 16.4087 31.7407 17.9787 31.54C18.0072 31.5399 18.0348 31.5498 18.0566 31.5681C18.0784 31.5863 18.093 31.6117 18.0978 31.6397C18.1026 31.6677 18.0973 31.6965 18.0828 31.721C18.0684 31.7454 18.0457 31.764 18.0188 31.7733L18.0388 31.78Z" fill="#E4E7FF"/>
<path d="M8.55178 30.36C7.06557 29.6047 5.71182 28.614 4.54316 27.4266C4.43422 27.3045 4.37402 27.1468 4.37402 26.9833C4.37402 26.8198 4.43422 26.6621 4.54316 26.54C4.59878 26.4806 4.66603 26.4333 4.74073 26.401C4.81543 26.3686 4.89599 26.3519 4.97743 26.3519C5.05886 26.3519 5.13942 26.3686 5.21412 26.401C5.28882 26.4333 5.35607 26.4806 5.41169 26.54C5.41169 26.54 5.41169 26.54 5.45178 26.58C6.45848 27.7762 7.65188 28.8027 8.98605 29.62C9.08234 29.6793 9.15159 29.7739 9.17905 29.8835C9.2065 29.9931 9.18999 30.109 9.13303 30.2066C9.10678 30.2566 9.07039 30.3006 9.02618 30.3358C8.98197 30.371 8.9309 30.3966 8.87623 30.411C8.82156 30.4254 8.76449 30.4283 8.70863 30.4195C8.65277 30.4108 8.59935 30.3905 8.55178 30.36Z" fill="#E4E7FF"/>
<path d="M1.54335 23.2933C0.771653 21.7332 0.250841 20.0617 3.02466e-05 18.34C-0.0405846 18.0803 0.0228598 17.8152 0.176642 17.6018C0.330425 17.3885 0.562184 17.2441 0.821797 17.2C0.950433 17.1822 1.08133 17.19 1.20691 17.2231C1.33249 17.2561 1.45025 17.3136 1.5534 17.3924C1.65654 17.4711 1.74301 17.5695 1.8078 17.6818C1.87259 17.7941 1.91441 17.9181 1.93085 18.0467C1.93414 18.0688 1.93414 18.0912 1.93085 18.1133C2.05255 19.6522 2.41084 21.1632 2.99313 22.5933C3.08078 22.795 3.08503 23.0231 3.00494 23.2278C2.92485 23.4326 2.76692 23.5975 2.56555 23.6867C2.37679 23.7611 2.16687 23.762 1.97749 23.6891C1.78811 23.6162 1.63314 23.475 1.54335 23.2933Z" fill="#E4E7FF"/>
<path d="M0.120271 13.1C0.425044 11.3627 1.01894 9.68847 1.87738 8.14669C1.95117 8.01109 2.05147 7.89164 2.17236 7.79542C2.29324 7.6992 2.43224 7.62816 2.58113 7.58651C2.73003 7.54486 2.88578 7.53345 3.03917 7.55295C3.19256 7.57244 3.34048 7.62246 3.47415 7.70002C3.7413 7.86595 3.93497 8.12731 4.01566 8.43081C4.09636 8.73431 4.058 9.0571 3.90842 9.33335C3.16213 10.6517 2.6108 12.0709 2.27156 13.5467C2.24086 13.6903 2.18164 13.8264 2.0974 13.9468C2.01315 14.0673 1.90558 14.1697 1.78104 14.248C1.6565 14.3263 1.51751 14.3789 1.37226 14.4027C1.22702 14.4265 1.07846 14.4211 0.935357 14.3867C0.663684 14.3114 0.429774 14.138 0.279123 13.9002C0.128472 13.6624 0.0718505 13.3772 0.120271 13.1Z" fill="#E4E7FF"/>
<path d="M5.11764 4.03331C6.40946 2.86753 7.883 1.91955 9.48035 1.22665C9.62289 1.16699 9.77614 1.13698 9.93071 1.13848C10.0853 1.13998 10.2379 1.17294 10.3793 1.23535C10.5206 1.29776 10.6477 1.38831 10.7528 1.50145C10.8578 1.61458 10.9387 1.74793 10.9903 1.89331C11.1094 2.17797 11.114 2.49745 11.0033 2.78545C10.8926 3.07345 10.675 3.30785 10.3957 3.43998C9.03289 4.04094 7.77805 4.86069 6.681 5.86665C6.5662 5.97415 6.43082 6.0574 6.28299 6.11143C6.13516 6.16545 5.97792 6.18912 5.8207 6.18103C5.66347 6.17294 5.50951 6.13324 5.36803 6.06433C5.22655 5.99541 5.10048 5.8987 4.99738 5.77998C4.78492 5.53571 4.67532 5.21893 4.69151 4.89589C4.7077 4.57285 4.84841 4.26856 5.08423 4.04665L5.11764 4.03331Z" fill="#E4E7FF"/>
<path d="M14.4711 0.0333551C16.177 -0.0864034 17.8908 0.0918258 19.5353 0.560022C19.7785 0.627068 19.9852 0.787366 20.1104 1.00594C20.2356 1.2245 20.269 1.4836 20.2034 1.72669C20.1434 1.95109 20.0005 2.14454 19.8035 2.26819C19.6065 2.39184 19.3699 2.43656 19.1412 2.39336C17.6769 2.09954 16.1759 2.03432 14.6916 2.20002C14.5506 2.21376 14.4082 2.19939 14.2728 2.15775C14.1374 2.11611 14.0117 2.04802 13.9029 1.95746C13.7941 1.86689 13.7045 1.75564 13.6391 1.63019C13.5738 1.50474 13.5341 1.36758 13.5224 1.22669C13.4915 0.950188 13.5688 0.672463 13.738 0.451392C13.9073 0.230322 14.1556 0.0829617 14.431 0.0400218L14.4711 0.0333551Z" fill="#E4E7FF"/>
<path d="M24.1252 2.70663C24.8097 3.19371 25.4552 3.73311 26.056 4.31997C26.6586 4.91126 27.2189 5.54392 27.7329 6.2133C27.8265 6.32734 27.8719 6.47328 27.8594 6.62015C27.8469 6.76702 27.7776 6.90326 27.6661 6.99996C27.5677 7.09527 27.4359 7.14857 27.2987 7.14857C27.1615 7.14857 27.0297 7.09527 26.9312 6.99996L26.8978 6.95996C26.3807 6.38322 25.8272 5.8399 25.2409 5.3333C24.6451 4.83909 24.0106 4.39322 23.3435 3.99997C23.1688 3.89686 23.0412 3.72999 22.9875 3.53466C22.9339 3.33932 22.9586 3.13084 23.0562 2.9533C23.1506 2.78401 23.3082 2.65885 23.4947 2.60514C23.6812 2.55143 23.8815 2.57354 24.0517 2.66663L24.1252 2.70663Z" fill="#E4E7FF"/>
<path d="M30.1182 10.6667C30.6633 12.2472 30.9608 13.9022 31.0001 15.5733C31.001 15.5984 30.9968 15.6234 30.9878 15.6468C30.9788 15.6702 30.9651 15.6916 30.9477 15.7097C30.9302 15.7277 30.9093 15.742 30.8861 15.7518C30.863 15.7616 30.8381 15.7667 30.813 15.7667C30.7893 15.7676 30.7657 15.7638 30.7434 15.7555C30.7212 15.7473 30.7008 15.7348 30.6834 15.7187C30.6661 15.7026 30.652 15.6832 30.6422 15.6617C30.6323 15.6402 30.6268 15.617 30.6259 15.5933C30.4829 13.9864 30.0884 12.4117 29.4567 10.9267C29.4197 10.8388 29.4178 10.7401 29.4513 10.6509C29.4849 10.5616 29.5513 10.4886 29.6371 10.4467C29.6799 10.427 29.7263 10.4163 29.7734 10.4151C29.8205 10.414 29.8674 10.4224 29.9111 10.4398C29.9549 10.4573 29.9946 10.4835 30.0279 10.5167C30.0612 10.55 30.0873 10.5897 30.1048 10.6333L30.1182 10.6667Z" fill="#E4E7FF"/>
<path d="M18.934 6.36661C17.2905 7.07994 15.2528 8.57328 15.2661 11.5933C15.2743 12.0922 15.1117 12.579 14.8051 12.9733C14.0569 13.9066 12.6405 15.4733 11.331 15.8933L12.0258 16.8466C12.2537 17.1294 12.394 17.4724 12.4296 17.8335C12.4652 18.1946 12.3945 18.5583 12.2263 18.8799C12.1853 18.9672 12.1287 19.0463 12.0592 19.1133L12.4133 19.2933L12.7875 19.4933C12.8845 19.5452 12.966 19.622 13.0235 19.7157C13.081 19.8094 13.1125 19.9167 13.1148 20.0266C13.121 20.1391 13.0985 20.2512 13.0494 20.3527C13.0003 20.4541 12.9263 20.5415 12.8342 20.6066L12.1661 21.0733C12.8342 21.6333 13.4489 22.4066 12.0526 24.3333C11.6851 24.8466 11.7853 25.1199 11.8254 25.2066C11.9347 25.4234 12.107 25.6023 12.3198 25.7199C11.8596 25.5705 11.4127 25.3832 10.9836 25.1599C10.9397 24.6794 11.0859 24.2009 11.3911 23.8266C12.4467 22.3533 12.0592 22.0333 11.6383 21.6933L11.4579 21.5399C11.3846 21.4731 11.327 21.3907 11.2896 21.2989C11.2521 21.207 11.2357 21.108 11.2415 21.009C11.2472 20.91 11.275 20.8135 11.3229 20.7266C11.3708 20.6397 11.4374 20.5646 11.5181 20.5066L12.1461 20.0666L12.0392 20.0133C11.4179 19.6933 11.0103 19.4799 11.0103 19.0933C11.0209 18.9963 11.0594 18.9045 11.121 18.8288C11.1826 18.7532 11.2648 18.6968 11.3577 18.6666C11.5314 18.5799 11.5715 18.5133 11.5782 18.4999C11.6611 18.3156 11.6924 18.1123 11.6689 17.9116C11.6453 17.7109 11.5678 17.5203 11.4446 17.3599L10.556 16.1866C10.4907 16.0988 10.4479 15.9964 10.4316 15.8883C10.4153 15.7801 10.4259 15.6697 10.4625 15.5666C10.5008 15.4649 10.5634 15.3741 10.6449 15.302C10.7264 15.23 10.8243 15.1789 10.9301 15.1533C11.7519 14.9799 12.9345 13.9999 14.1905 12.4466C14.3786 12.2049 14.4777 11.9059 14.4711 11.5999C14.443 10.4509 14.7419 9.3174 15.3332 8.33096C15.9244 7.34452 16.7838 6.54552 17.8116 6.02661L18.934 6.36661Z" fill="white"/>
</g>
<defs>
<clipPath id="clip0_2_148">
<rect width="31" height="32" fill="white"/>
</clipPath>
</defs>
</svg>
