<svg width="54" height="54" viewBox="0 0 54 54" fill="none" xmlns="http://www.w3.org/2000/svg">
<rect width="54" height="54" rx="12" fill="#7D6AEE"/>
<g clip-path="url(#clip0_3_221)">
<path d="M26.9833 10.3334C17.7833 10.3334 10.3333 17.8 10.3333 27C10.3333 36.2 17.7833 43.6667 26.9833 43.6667C36.2 43.6667 43.6666 36.2 43.6666 27C43.6666 17.8 36.2 10.3334 26.9833 10.3334ZM27 40.3334C19.6333 40.3334 13.6666 34.3667 13.6666 27C13.6666 19.6334 19.6333 13.6667 27 13.6667C34.3666 13.6667 40.3333 19.6334 40.3333 27C40.3333 34.3667 34.3666 40.3334 27 40.3334ZM27.8333 18.6667H25.3333V28.6667L34.0833 33.9167L35.3333 31.8667L27.8333 27.4167V18.6667Z" fill="white"/>
</g>
<defs>
<clipPath id="clip0_3_221">
<rect width="40" height="40" fill="white" transform="translate(7 7)"/>
</clipPath>
</defs>
</svg>
